<svg xmlns="http://www.w3.org/2000/svg" x="0px" y="0px" width="100" height="100" viewBox="0,0,256,256">
<defs><linearGradient x1="12.313" y1="13.345" x2="57.894" y2="39.661" gradientUnits="userSpaceOnUse" id="color-1_TErsjj1bYlbl_gr1"><stop offset="0" stop-color="#d7d7d7"></stop><stop offset="1" stop-color="#262626"></stop></linearGradient><linearGradient x1="-1.469" y1="4.531" x2="47.381" y2="53.381" gradientUnits="userSpaceOnUse" id="color-2_TErsjj1bYlbl_gr2"><stop offset="0" stop-color="#d7d7d7"></stop><stop offset="1" stop-color="#262626"></stop></linearGradient><linearGradient x1="12.331" y1="8.831" x2="39.521" y2="36.021" gradientUnits="userSpaceOnUse" id="color-3_TErsjj1bYlbl_gr3"><stop offset="0" stop-color="#d7d7d7"></stop><stop offset="1" stop-color="#262626"></stop></linearGradient><linearGradient x1="2.933" y1="6.633" x2="33.993" y2="37.693" gradientUnits="userSpaceOnUse" id="color-4_TErsjj1bYlbl_gr4"><stop offset="0" stop-color="#d7d7d7"></stop><stop offset="1" stop-color="#262626"></stop></linearGradient></defs><g fill="none" fill-rule="nonzero" stroke="none" stroke-width="1" stroke-linecap="butt" stroke-linejoin="miter" stroke-miterlimit="10" stroke-dasharray="" stroke-dashoffset="0" font-family="none" font-weight="none" font-size="none" text-anchor="none" style="mix-blend-mode: normal"><g transform="scale(5.33333,5.33333)"><path d="M24,44l12.017,-3.433c1.194,-0.341 2.055,-1.383 2.164,-2.621l2.819,-31.946h-17z" fill="url(#color-1_TErsjj1bYlbl_gr1)"></path><path d="M24,6h-13.724c-1.761,0 -3.143,1.51 -2.988,3.264l2.712,30.736l14,4z" fill="url(#color-2_TErsjj1bYlbl_gr2)"></path><path d="M33.1,14h-9.1v4h4.9l-0.3,4h-4.6v4h4.4l-0.3,4.5l-4.1,1.4v4.2l7.9,-2.6l0.7,-11.5v0z" fill="url(#color-3_TErsjj1bYlbl_gr3)"></path><path d="M24,14v4h-8.9l-0.3,-4zM19.4,22l0.2,4h4.4v-4zM19.8,28h-4l0.3,5.5l7.9,2.6v-4.2l-4.1,-1.4z" fill="url(#color-4_TErsjj1bYlbl_gr4)"></path></g></g>
</svg>