<svg xmlns="http://www.w3.org/2000/svg" x="0px" y="0px" width="100" height="100" viewBox="0,0,256,256">
<defs><linearGradient x1="-2.354" y1="8.784" x2="64.603" y2="47.442" gradientUnits="userSpaceOnUse" id="color-1_v6gAXUBr2rra_gr1"><stop offset="0" stop-color="#d4d4d4"></stop><stop offset="1" stop-color="#363636"></stop></linearGradient><linearGradient x1="5.143" y1="17.563" x2="26.258" y2="38.678" gradientUnits="userSpaceOnUse" id="color-2_v6gAXUBr2rra_gr2"><stop offset="0" stop-color="#d4d4d4"></stop><stop offset="1" stop-color="#363636"></stop></linearGradient><linearGradient x1="16.643" y1="6.063" x2="37.758" y2="27.178" gradientUnits="userSpaceOnUse" id="color-3_v6gAXUBr2rra_gr3"><stop offset="0" stop-color="#d4d4d4"></stop><stop offset="1" stop-color="#363636"></stop></linearGradient><linearGradient x1="11.728" y1="10.978" x2="32.843" y2="32.093" gradientUnits="userSpaceOnUse" id="color-4_v6gAXUBr2rra_gr4"><stop offset="0" stop-color="#d4d4d4"></stop><stop offset="1" stop-color="#363636"></stop></linearGradient></defs><g fill="none" fill-rule="nonzero" stroke="none" stroke-width="1" stroke-linecap="butt" stroke-linejoin="miter" stroke-miterlimit="10" stroke-dasharray="" stroke-dashoffset="0" font-family="none" font-weight="none" font-size="none" text-anchor="none" style="mix-blend-mode: normal"><g transform="scale(5.33333,5.33333)"><path d="M24,11c-12.703,0 -23,5.82 -23,13c0,7.18 10.297,13 23,13c12.703,0 23,-5.82 23,-13c0,-7.18 -10.297,-13 -23,-13z" fill="url(#color-1_v6gAXUBr2rra_gr1)"></path><path d="M17.542,19.465c-0.27,-0.318 -0.593,-0.571 -0.936,-0.791c-0.044,-0.032 -0.071,-0.075 -0.12,-0.104c-0.096,-0.058 -0.199,-0.101 -0.3,-0.149c-0.035,-0.017 -0.069,-0.036 -0.104,-0.052c-0.233,-0.103 -0.475,-0.187 -0.724,-0.245c-0.088,-0.021 -0.178,-0.032 -0.267,-0.047c-0.19,-0.032 -0.381,-0.053 -0.575,-0.063c-0.045,-0.001 -0.089,-0.014 -0.134,-0.014h-0.13h-5.004l-2.182,12h1.38c0.966,0 1.795,-0.691 1.968,-1.642l0.247,-1.358h2.069h0.805c2.454,0 4.528,-1.757 4.932,-4.178c0.201,-1.203 -0.136,-2.427 -0.925,-3.357zM11.206,24l0.546,-3h2.63c0.461,0 0.744,0.253 0.871,0.404c0.128,0.15 0.33,0.471 0.255,0.925c-0.161,0.968 -0.991,1.671 -1.973,1.671z" fill="url(#color-2_v6gAXUBr2rra_gr2)"></path><path d="M40.542,19.465c-0.27,-0.318 -0.593,-0.571 -0.936,-0.791c-0.044,-0.032 -0.071,-0.075 -0.12,-0.104c-0.096,-0.058 -0.199,-0.101 -0.3,-0.149c-0.035,-0.017 -0.069,-0.036 -0.104,-0.052c-0.233,-0.103 -0.475,-0.187 -0.724,-0.245c-0.088,-0.021 -0.178,-0.032 -0.267,-0.047c-0.19,-0.032 -0.381,-0.053 -0.575,-0.063c-0.045,-0.001 -0.089,-0.014 -0.134,-0.014h-0.13h-5.004l-2.182,12h1.38c0.966,0 1.795,-0.691 1.968,-1.642l0.247,-1.358h2.069h0.805c2.454,0 4.528,-1.757 4.932,-4.178c0.201,-1.203 -0.136,-2.427 -0.925,-3.357zM34.206,24l0.546,-3h2.63c0.461,0 0.744,0.253 0.871,0.404c0.128,0.15 0.33,0.471 0.255,0.925c-0.161,0.968 -0.991,1.671 -1.973,1.671z" fill="url(#color-3_v6gAXUBr2rra_gr3)"></path><path d="M28.151,20.315c-0.787,-0.877 -1.954,-1.315 -3.131,-1.315h-0.599l1,-4h-1.531c-0.918,0 -1.718,0.625 -1.94,1.515l-2.871,11.485h1.53c0.918,0 1.718,-0.625 1.94,-1.515l1.122,-4.485h1.515c0.434,0 0.687,0.25 0.799,0.398c0.112,0.148 0.282,0.46 0.143,0.958l-1.053,4.644h3.075l0.882,-3.901c0.38,-1.332 0.06,-2.736 -0.881,-3.784z" fill="url(#color-4_v6gAXUBr2rra_gr4)"></path></g></g>
</svg>